<?xml version="1.0" encoding="UTF-8"?>
<svg id="Layer_1" data-name="Layer 1" xmlns="http://www.w3.org/2000/svg" viewBox="0 0 269.53 250">
  <defs>
    <style>
      .cls-1 {
        fill: #1ae811;
      }

      .cls-2 {
        fill: #030503;
      }

      .cls-3 {
        fill: #6eff6b;
      }

      .cls-4 {
        fill: #c4f5c1;
      }

      .cls-5 {
        stroke: #000;
        stroke-miterlimit: 10;
      }

      .cls-6 {
        fill: #080908;
      }
    </style>
  </defs>
  <rect width="269.53" height="250"/>
  <path class="cls-4" d="M54.57,200.7v-24.08h3.56c1.39,0,2.02,1.91,2.1,3.06.42,6.04-.32,12.58-.03,18.67.06.88-1.28,2.36-2.07,2.36h-3.56Z"/>
  <g>
    <path class="cls-1" d="M175.09,23.76l-83.71.07c-8.45.23-15.64,6.76-16.91,15.05-.37,28.2-.49,56.52.07,84.71,1.85,9.21,8.76,14.41,17.98,14.95,28.23-.23,56.53.4,84.72-.32,9.14-1.43,15.24-8.8,15.43-17.99V42.06c-.32-10.35-7.2-17.67-17.58-18.3ZM190.21,121.95c-.77,7.83-6.78,13.55-14.62,14.13h-84.3c-7.9-.58-13.81-6.24-14.62-14.13l.02-82.09c.8-7.05,6.21-12.57,13.21-13.58l86.66-.06c7.49.93,13.1,6.81,13.65,14.36v81.37Z"/>
    <path class="cls-2" d="M89.9,26.28l86.66-.06c7.49.93,13.09,6.81,13.65,14.36v81.36c-.77,7.83-6.78,13.55-14.62,14.13h-84.3c-7.9-.58-13.81-6.24-14.62-14.13V39.86c.81-7.05,6.22-12.57,13.22-13.58ZM91.62,32.67c-4.68.53-7.97,4.05-8.54,8.66v79.14c.44,5.25,4.23,8.83,9.45,9.22h81.6c5.2-.21,9.29-3.99,9.7-9.22-.23-26.84.41-53.76-.32-80.55-1.09-4.27-4.48-6.98-8.89-7.33l-82.99.08Z"/>
    <path class="cls-1" d="M91.62,32.67l82.99-.08c4.41.35,7.8,3.06,8.89,7.33.73,26.79.1,53.71.32,80.55-.41,5.23-4.5,9-9.7,9.22h-81.6c-5.21-.39-9.01-3.96-9.46-9.22V41.33c.58-4.61,3.87-8.13,8.55-8.66ZM90.87,35.12c-2.82.83-5.17,3.18-5.35,6.2v79.65c.32,3.52,3.26,6.14,6.76,6.27h82.58c3.56-.31,6.01-2.8,6.51-6.27V41.57c-.24-3.26-2.73-6.12-6.02-6.51l-84.48.07Z"/>
    <path class="cls-2" d="M90.87,35.12l84.48-.07c3.29.39,5.78,3.25,6.02,6.51v79.4c-.5,3.47-2.95,5.96-6.51,6.27h-82.58c-3.49-.13-6.44-2.75-6.76-6.27V41.32c.18-3.02,2.54-5.37,5.35-6.2ZM124.37,50.04h-24.35s0,61.96,0,61.96h24.35s0-61.96,0-61.96ZM166.88,50.04h-24.35s0,61.96,0,61.96h24.35s0-61.96,0-61.96Z"/>
    <path class="cls-1" d="M124.37,50.04v61.96s-24.35,0-24.35,0v-61.96s24.35,0,24.35,0ZM102.24,52.27v57.51h19.9v-57.51h-19.9Z"/>
    <path class="cls-1" d="M166.88,50.04v61.96s-24.35,0-24.35,0v-61.96s24.35,0,24.35,0ZM164.65,52.27h-19.9v57.75h19.9v-57.75Z"/>
    <path class="cls-2" d="M102.24,52.27h19.9v57.51h-19.9v-57.51ZM118.72,55.69h-13.05s0,50.66,0,50.66h13.05s0-50.66,0-50.66Z"/>
    <path class="cls-6" d="M164.65,52.27v57.75h-19.9v-57.75h19.9ZM161.22,55.7h-13.05s0,50.65,0,50.65h13.05s0-50.65,0-50.65Z"/>
    <path class="cls-1" d="M118.72,55.69v50.65s-13.05,0-13.05,0v-50.65s13.05,0,13.05,0ZM116.49,57.92h-8.6v46.2h8.6v-46.2Z"/>
    <path class="cls-1" d="M161.22,55.7v50.65s-13.05,0-13.05,0v-50.65s13.05,0,13.05,0ZM159,57.92h-8.6v46.2h8.6v-46.2Z"/>
    <rect class="cls-2" x="107.89" y="57.92" width="8.6" height="46.2"/>
    <rect class="cls-2" x="150.4" y="57.92" width="8.6" height="46.2"/>
  </g>
  <rect class="cls-3" x="27.73" y="158.65" width="211.19" height="72.01"/>
  <g>
    <path d="M50.38,217.36h1.44v.78h-2v-15.57h.56v14.79Z"/>
    <path d="M63.2,203.34h-1.36v2.67h1.36v.78h-1.36v10.57h1.36v.78h-1.92v-15.57h1.92v.78Z"/>
    <path d="M74.73,218.14l-.64-11.35h-.48l-.64,11.35h-.56l.91-15.57h1.06l.91,15.57h-.56ZM73.79,202.67l-.06,1.22-.11,2.11h.48l-.11-2.11-.06-1.22h-.13Z"/>
    <path d="M86.83,218.14l-1.06-11.35h-.38v11.35h-.56v-15.57h1.2c.8,0,1.28.67,1.28,2.11,0,1.25-.37,1.91-.98,2.07l1.06,11.39h-.56ZM85.39,203.34v2.67h.64c.48,0,.72-.33.72-1.33s-.24-1.33-.72-1.33h-.64Z"/>
    <path d="M97.09,218.14v-15.57h1.15l.85,15.46h.16l-.08-1.89v-13.57h.56v15.57h-1.15l-.85-15.46h-.16l.08,1.89v13.57h-.56Z"/>
    <path d="M109.74,218.14v-15.57h.56v15.57h-.56Z"/>
    <path d="M120.32,218.14v-15.57h1.15l.85,15.46h.16l-.08-1.89v-13.57h.56v15.57h-1.15l-.85-15.46h-.16l.08,1.89v13.57h-.56Z"/>
    <path d="M135.23,206.35h-.56v-2c0-.89-.24-1.22-.61-1.22s-.61.33-.61,1.22v12.01c0,.89.24,1.22.61,1.22s.61-.33.61-1.22v-1.78h-.74v-.78h1.3v2.56c0,1.33-.48,2-1.17,2s-1.17-.67-1.17-2v-12.01c0-1.33.48-2,1.17-2s1.17.67,1.17,2v2Z"/>
    <path d="M156.78,202.56c.72,0,1.2.67,1.2,2v11.57c0,1.33-.48,2-1.2,2h-1.12v-15.57h1.12ZM157.42,204.57c0-.89-.24-1.22-.64-1.22h-.56v14.02h.56c.4,0,.64-.33.64-1.22v-11.57Z"/>
    <path d="M169.84,203.34h-1.36v2.67h1.36v.78h-1.36v10.57h1.36v.78h-1.92v-15.57h1.92v.78Z"/>
    <path d="M179.33,216.36v-2.23h.56v2.23c0,.89.24,1.22.64,1.22s.64-.33.64-1.11c0-1.45-1.87-10.68-1.87-12.24,0-1.2.5-1.89,1.18-1.89s1.18.69,1.18,2v2h-.56v-2c0-.87-.26-1.22-.62-1.22s-.62.36-.62,1.11c0,1.45,1.87,10.68,1.87,12.24,0,1.22-.48,1.89-1.2,1.89s-1.2-.67-1.2-2Z"/>
    <path d="M191.42,218.14v-15.57h.56v15.57h-.56Z"/>
    <path d="M204.25,206.35h-.56v-2c0-.89-.24-1.22-.61-1.22s-.61.33-.61,1.22v12.01c0,.89.24,1.22.61,1.22s.61-.33.61-1.22v-1.78h-.74v-.78h1.3v2.56c0,1.33-.48,2-1.17,2s-1.17-.67-1.17-2v-12.01c0-1.33.48-2,1.17-2s1.17.67,1.17,2v2Z"/>
    <path d="M214.19,218.14v-15.57h1.15l.85,15.46h.16l-.08-1.89v-13.57h.56v15.57h-1.15l-.85-15.46h-.16l.08,1.89v13.57h-.56Z"/>
  </g>
  <g>
    <path class="cls-5" d="M48,171.87h7.75c2.27,0,4.25.46,5.92,1.37,1.67.92,2.97,2.3,3.89,4.15s1.38,4.16,1.38,6.91-.47,5.06-1.4,6.91c-.93,1.85-2.25,3.24-3.95,4.15-1.71.92-3.75,1.37-6.12,1.37h-7.47v-24.87ZM58.41,191.11c.72-.63,1.26-1.53,1.61-2.69.35-1.16.53-2.53.53-4.12s-.18-2.99-.53-4.15c-.35-1.16-.89-2.05-1.61-2.67-.72-.62-1.63-.93-2.73-.93h-1.67v15.51h1.67c1.09,0,2-.32,2.73-.95Z"/>
    <path class="cls-5" d="M69.08,171.87h6.04v24.87h-6.04v-24.87Z"/>
    <path class="cls-5" d="M80.33,195.57c-1.51-1.02-2.53-2.45-3.07-4.28l4.77-1.54c.35.95.87,1.68,1.55,2.18.68.5,1.53.75,2.54.75.64,0,1.18-.1,1.63-.29s.78-.47,1.01-.82c.23-.35.34-.76.34-1.23,0-.73-.27-1.3-.81-1.7s-1.53-.77-2.98-1.12c-1.72-.39-3.13-.94-4.23-1.65-1.11-.71-1.94-1.62-2.5-2.73-.56-1.11-.84-2.46-.84-4.04s.36-2.88,1.07-4.02,1.7-2.03,2.96-2.65c1.26-.62,2.69-.93,4.28-.93,2.05,0,3.76.48,5.15,1.45,1.38.96,2.39,2.32,3.01,4.08l-4.74,1.54c-.7-1.76-1.89-2.63-3.56-2.63-.76,0-1.4.21-1.89.62-.5.42-.74.94-.74,1.57,0,.49.13.88.4,1.19.27.31.69.57,1.27.8.58.23,1.45.52,2.6.86,1.65.49,3,1.08,4.03,1.77,1.03.7,1.81,1.57,2.33,2.63.52,1.06.77,2.38.77,3.97s-.36,2.96-1.08,4.13c-.72,1.17-1.74,2.07-3.05,2.69-1.31.62-2.84.93-4.57.93-2.25,0-4.13-.51-5.64-1.54Z"/>
    <path class="cls-5" d="M96.82,171.87h8.71c2.6,0,4.7.61,6.28,1.83,1.58,1.22,2.37,3.08,2.37,5.6s-.59,4.3-1.77,5.6-2.82,2.07-4.93,2.34l-1.92.51h-2.7v9h-6.04v-24.87ZM107.42,182.22c.52-.56.78-1.35.78-2.38s-.26-1.82-.78-2.38-1.26-.84-2.23-.84h-2.32v6.44h2.32c.97,0,1.72-.28,2.23-.84ZM103.92,185.08h6.04l5.12,11.67h-6.63l-4.53-11.67Z"/>
    <path class="cls-5" d="M118.93,194.44c-1.55-1.78-2.33-4.29-2.33-7.54v-15.03h6.01v14.96c0,1.8.28,3.15.84,4.02s1.4,1.32,2.51,1.32,1.95-.44,2.5-1.32c.55-.88.82-2.22.82-4.02v-14.96h5.15v15.03c0,3.29-.71,5.82-2.14,7.57s-3.62,2.63-6.57,2.63-5.24-.89-6.79-2.67Z"/>
    <path class="cls-5" d="M137.03,171.87h8.68c2.69,0,4.75.65,6.18,1.94,1.44,1.29,2.15,3.29,2.15,6s-.73,4.66-2.19,6c-1.46,1.34-3.51,2.01-6.15,2.01h-2.63v8.93h-6.04v-24.87ZM147.51,182.28c.52-.52.78-1.32.78-2.4s-.26-1.88-.78-2.43-1.29-.82-2.33-.82h-2.11v6.44h2.11c1.03,0,1.81-.26,2.33-.79Z"/>
    <path class="cls-5" d="M160.87,177.17h-5.61v-5.3h17.27v5.3h-5.61v19.57h-6.04v-19.57Z"/>
    <path class="cls-5" d="M174.35,171.87h6.04v24.87h-6.04v-24.87Z"/>
    <path class="cls-5" d="M182.07,171.87h6.29l5.42,20.63h-2.11l5.43-20.63h5.08l-7.19,24.87h-5.74l-7.19-24.87Z"/>
    <path class="cls-5" d="M203.86,171.87h15.25v5.01h-9.21v4.98h6.73v4.83h-6.73v5.05h9.42v5.01h-15.47v-24.87Z"/>
  </g>
</svg>