<?xml version="1.0" encoding="UTF-8"?>
<svg id="Layer_1" data-name="Layer 1" xmlns="http://www.w3.org/2000/svg" viewBox="0 0 118.51 115.59">
  <defs>
    <style>
      .cls-1 {
        fill: #1ae811;
      }

      .cls-2 {
        fill: #030503;
      }

      .cls-3 {
        fill: #080908;
      }
    </style>
  </defs>
  <path class="cls-1" d="M100.93,0L17.22.07C8.77.3,1.58,6.83.31,15.12c-.37,28.2-.49,56.52.07,84.71,1.85,9.21,8.76,14.41,17.98,14.95,28.23-.23,56.53.4,84.72-.32,9.14-1.43,15.24-8.8,15.43-17.99V18.3c-.32-10.35-7.2-17.67-17.58-18.3ZM116.05,98.19c-.77,7.83-6.78,13.55-14.62,14.13H17.13c-7.9-.58-13.81-6.24-14.62-14.13l.02-82.09c.8-7.05,6.21-12.57,13.21-13.58l86.66-.06c7.49.93,13.1,6.81,13.65,14.36v81.37Z"/>
  <path class="cls-2" d="M15.74,2.52l86.66-.06c7.49.93,13.09,6.81,13.65,14.36v81.36c-.77,7.83-6.78,13.55-14.62,14.13H17.14c-7.9-.58-13.81-6.24-14.62-14.13V16.1c.81-7.05,6.22-12.57,13.22-13.58ZM17.46,8.91c-4.68.53-7.97,4.05-8.54,8.66v79.14c.44,5.25,4.23,8.83,9.45,9.22h81.6c5.2-.21,9.29-3.99,9.7-9.22-.23-26.84.41-53.76-.32-80.55-1.09-4.27-4.48-6.98-8.89-7.33l-82.99.08Z"/>
  <path class="cls-1" d="M17.46,8.91l82.99-.08c4.41.35,7.8,3.06,8.89,7.33.73,26.79.1,53.71.32,80.55-.41,5.23-4.5,9-9.7,9.22H18.37c-5.21-.39-9.01-3.96-9.46-9.22V17.57c.58-4.61,3.87-8.13,8.55-8.66ZM16.71,11.36c-2.82.83-5.17,3.18-5.35,6.2v79.65c.32,3.52,3.26,6.14,6.76,6.27h82.58c3.56-.31,6.01-2.8,6.51-6.27V17.81c-.24-3.26-2.73-6.12-6.02-6.51l-84.48.07Z"/>
  <path class="cls-2" d="M16.71,11.36l84.48-.07c3.29.39,5.78,3.25,6.02,6.51v79.4c-.5,3.47-2.95,5.96-6.51,6.27H18.12c-3.49-.13-6.44-2.75-6.76-6.27V17.56c.18-3.02,2.54-5.37,5.35-6.2ZM50.21,26.28h-24.35s0,61.96,0,61.96h24.35s0-61.96,0-61.96ZM92.72,26.28h-24.35s0,61.96,0,61.96h24.35s0-61.96,0-61.96Z"/>
  <path class="cls-1" d="M50.21,26.28v61.96s-24.35,0-24.35,0V26.28s24.35,0,24.35,0ZM28.08,28.51v57.51h19.9V28.51h-19.9Z"/>
  <path class="cls-1" d="M92.72,26.28v61.96s-24.35,0-24.35,0V26.28s24.35,0,24.35,0ZM90.49,28.51h-19.9v57.75h19.9V28.51Z"/>
  <path class="cls-2" d="M28.08,28.51h19.9v57.51h-19.9V28.51ZM44.55,31.93h-13.05s0,50.66,0,50.66h13.05s0-50.66,0-50.66Z"/>
  <path class="cls-3" d="M90.49,28.51v57.75h-19.9V28.51h19.9ZM87.06,31.94h-13.05s0,50.65,0,50.65h13.05s0-50.65,0-50.65Z"/>
  <path class="cls-1" d="M44.55,31.93v50.65s-13.05,0-13.05,0V31.93s13.05,0,13.05,0ZM42.33,34.16h-8.6v46.2h8.6v-46.2Z"/>
  <path class="cls-1" d="M87.06,31.94v50.65s-13.05,0-13.05,0V31.94s13.05,0,13.05,0ZM84.84,34.16h-8.6v46.2h8.6v-46.2Z"/>
  <rect class="cls-2" x="33.73" y="34.16" width="8.6" height="46.2"/>
  <rect class="cls-2" x="76.24" y="34.16" width="8.6" height="46.2"/>
</svg>